<svg xmlns="http://www.w3.org/2000/svg" viewBox="0 0 64 64" role="img" aria-label="Taca da Copa">
  <path d="M21 8c-2 8-1 17 2 26 2 6 5 11 7 16h4c2-5 5-10 7-16 3-9 4-18 2-26-7-4-15-4-22 0Z" fill="#fff" stroke="#111" stroke-width="3" stroke-linejoin="round"/>
  <path d="M25 12c3-2 8-2 12 0-2 3-5 5-9 5-2 0-3-2-3-5ZM40 18c-1 4-3 7-7 9 0-5 2-8 7-9ZM22 20c4 1 7 4 8 8-5-1-8-3-8-8ZM37 31c-1 4-3 8-6 12-2-4-2-8 1-11 2 1 3 1 5-1Z" fill="#111"/>
  <path d="M26 50h12l2 6H24l2-6Z" fill="#fff" stroke="#111" stroke-width="3" stroke-linejoin="round"/>
  <path d="M22 58h20" fill="none" stroke="#111" stroke-width="4" stroke-linecap="round"/>
</svg>
